PathFileType	3	(X/Y/Z)	E:\ViconData\BIOM9541 2025\Week 7\Wed1100\Hanif high squat 5 Squat 01.trc
DataRate	CameraRate	NumFrames	NumMarkers	Units	OrigDataRate	OrigDataStartFrame	OrigNumFrames
200.0	200.0	13	19	mm	200.0	907	1450	
Frame#	Time	C7			CLAV			RBAK			LASI			RASI			LPSI			RPSI			LTHI			LKNE			LTIB			LANK			LHEE			LTOE			RTHI			RKNE			RTIB			RANK			RHEE			RTOE			
		X1	Y1	Z1	X2	Y2	Z2	X3	Y3	Z3	X4	Y4	Z4	X5	Y5	Z5	X6	Y6	Z6	X7	Y7	Z7	X8	Y8	Z8	X9	Y9	Z9	X10	Y10	Z10	X11	Y11	Z11	X12	Y12	Z12	X13	Y13	Z13	X14	Y14	Z14	X15	Y15	Z15	X16	Y16	Z16	X17	Y17	Z17	X18	Y18	Z18	X19	Y19	Z19	
907	4.53	339.93124	1316.8549	-1211.5101	190.25787	1256.3331	-1207.8048	359.13339	1225.6486	-1354.9838	200.63403	882.48663	-1076.4482	199.479	890.5734	-1338.0021	371.3284	942.7732	-1162.7644	372.2994	939.941	-1237.1151	259.19537	560.6098	-997.00262	273.3298	421.76459	-1000.1252	299.71323	221.35336	-965.15387	310.52014	62.938549	-971.97034	331.11627	47.304768	-1030.0425	161.56421	37.85878	-950.04596	261.31674	734.81494	-1405.5153	285.80072	422.52118	-1412.3644	299.96991	335.58734	-1435.0679	307.29877	72.925552	-1429.7328	325.16113	47.564114	-1365.5988	163.34641	40.854591	-1464.5491	
908	4.535	339.94208	1316.8669	-1211.4775	190.27423	1256.3309	-1207.8231	359.08203	1225.6636	-1354.9127	200.54144	882.47443	-1076.5233	199.4776	890.5728	-1338.0234	371.227	942.7565	-1162.6658	372.2804	939.9208	-1237.0677	258.94656	560.60828	-996.98694	273.08075	421.7569	-1000.0868	299.57468	221.35962	-965.11853	310.57407	62.967518	-971.95679	331.09094	47.321407	-1030.035	161.5443	37.898708	-950.1355	261.35083	734.81238	-1405.5107	285.82712	422.51233	-1412.3402	299.99884	335.58044	-1435.0502	307.30853	72.904198	-1429.7107	325.16577	47.563454	-1365.5583	163.35239	40.861797	-1464.5212	
909	4.54	339.93777	1316.8811	-1211.4282	190.29521	1256.335	-1207.7986	359.08566	1225.6704	-1354.9021	200.40471	882.47003	-1076.5365	199.505	890.65	-1338.0707	371.1406	942.8034	-1162.455	372.1608	939.8444	-1236.9369	258.72266	560.604	-996.96405	272.81485	421.70206	-1000.0739	299.45142	220.71249	-965.7525	310.41827	62.999638	-971.89703	331.11127	47.428616	-1030.0525	161.50952	37.907852	-950.10876	261.38315	734.85712	-1405.4916	285.83633	422.57318	-1412.3025	300.00778	335.65302	-1435.0135	307.30771	73.000908	-1429.7024	325.15292	47.567753	-1365.5499	163.35329	40.929695	-1464.5259	
910	4.545	339.93362	1316.8804	-1211.3781	190.32373	1256.3513	-1207.7488	359.04218	1225.6466	-1354.8679	200.30241	882.39832	-1076.6061	199.5155	890.7463	-1338.1322	371.0343	942.8224	-1162.2203	372.0854	939.7429	-1236.8462	258.50812	560.51624	-997.00037	272.60114	421.6116	-1000.0529	299.32904	220.65961	-965.67651	310.39346	63.000523	-971.88531	331.1398	47.52652	-1030.0763	161.47894	37.919758	-950.0918	261.96548	734.98627	-1404.9677	285.83966	422.63516	-1412.2913	300.03229	335.72049	-1435.0031	307.30984	73.049294	-1429.6886	325.13034	47.577011	-1365.4137	163.35687	40.999119	-1464.5531	
911	4.55	339.95694	1316.844	-1211.3766	190.61249	1255.979	-1207.8439	359.10065	1225.6781	-1354.8485	200.15092	882.37134	-1076.5857	199.5866	890.7263	-1338.1755	370.9736	942.7673	-1162.1996	372.1028	939.7596	-1236.7871	258.30777	560.5296	-997.01404	272.36752	421.60941	-999.99884	299.19745	220.66351	-965.64276	310.40182	62.994987	-971.88776	331.14813	47.512215	-1030.0784	161.47908	37.931122	-950.13538	262.0564	734.96521	-1404.9741	285.88702	422.5925	-1412.2883	300.05972	335.68121	-1434.9963	307.33813	73.028854	-1429.6884	325.15149	47.544899	-1365.4886	163.38626	40.972374	-1464.548	
912	4.555	339.98209	1316.7822	-1211.3746	190.33205	1256.2498	-1207.7964	359.13345	1225.667	-1354.8015	200.03743	882.40308	-1076.6073	199.656	890.6549	-1338.1964	370.918	942.6981	-1162.2413	372.1119	939.7951	-1236.7035	258.08264	560.58459	-996.97363	272.11951	421.63138	-999.93573	299.34332	221.34338	-965.37842	310.47552	62.991478	-971.92834	331.16095	47.457874	-1030.108	161.53951	37.926395	-950.18311	262.15964	734.8924	-1404.9592	285.87668	422.52063	-1412.2814	300.08078	335.61639	-1434.9889	307.38882	72.970047	-1429.6794	325.18082	47.510357	-1365.5179	163.42647	40.897453	-1464.5459	
913	4.56	339.97391	1316.7433	-1211.3566	190.34248	1256.2487	-1207.7623	359.18295	1225.6693	-1354.8032	199.91054	882.38544	-1076.6406	199.6904	890.6174	-1338.2299	370.8567	942.681	-1162.3152	372.1178	939.8373	-1236.6503	257.88019	560.55835	-996.95477	271.91199	421.66705	-999.87	299.23306	221.37378	-965.3363	310.51266	62.991261	-971.95868	331.10107	47.383865	-1030.0665	161.55804	37.918404	-950.21948	262.20633	734.85382	-1404.9574	285.8613	422.49637	-1412.2979	300.05429	335.55304	-1434.9729	307.36691	72.941238	-1429.649	325.14838	47.53487	-1365.5065	163.42711	40.857059	-1464.5415	
914	4.565	339.94785	1316.7056	-1211.3125	190.32687	1256.1687	-1207.7471	359.13428	1225.6532	-1354.7355	199.81317	882.37653	-1076.681	199.7282	890.6528	-1338.2797	370.7938	942.6637	-1162.1276	372.0431	939.7832	-1236.5417	257.67593	560.58081	-996.89789	271.70514	421.67093	-999.82483	298.86057	221.23756	-965.039	310.35297	63.00948	-971.91693	331.09903	47.418831	-1030.0789	161.50061	37.897358	-950.1712	262.2746	734.85889	-1404.9683	285.82205	422.49628	-1412.3125	300.01871	335.56952	-1434.9794	307.33554	72.938835	-1429.651	325.11279	47.559772	-1365.4684	163.38559	40.85622	-1464.5219	
915	4.57	339.90561	1316.6885	-1211.2384	190.55507	1255.8998	-1207.6832	359.11517	1225.6401	-1354.6962	199.73447	882.31769	-1076.7269	199.7817	890.7055	-1338.3175	370.7213	942.6692	-1161.8878	372.0285	939.698	-1236.4474	257.45853	560.57629	-996.83691	271.50525	421.65097	-999.76514	298.77176	221.19647	-965.03577	310.2666	63.009373	-971.90253	331.05811	47.458466	-1030.0477	161.49031	37.914524	-950.18225	262.32901	734.93347	-1404.9718	285.76562	422.55313	-1412.3212	299.98297	335.6113	-1434.9604	307.30753	72.980301	-1429.63	325.09479	47.513054	-1365.4657	163.35684	40.924995	-1464.5334	
916	4.575	339.90326	1316.6853	-1211.1993	190.23723	1256.1221	-1207.7015	359.10989	1225.6165	-1354.6393	199.64188	882.30402	-1076.752	199.8396	890.6967	-1338.3623	370.6911	942.6362	-1161.7448	372.0348	939.6682	-1236.387	257.26929	560.58618	-996.77625	271.29993	421.62897	-999.71704	298.66357	221.16901	-964.99933	309.96692	63.077942	-971.83533	331.03738	47.461632	-1030.0369	161.47623	37.908283	-950.17041	262.38931	734.95062	-1404.9565	285.73328	422.56747	-1412.3521	299.94241	335.61508	-1434.9573	307.28903	72.976387	-1429.6042	325.08252	47.564583	-1365.4132	163.37578	40.490334	-1464.1351	
917	4.58	339.89221	1316.6514	-1211.1527	190.20537	1256.083	-1207.6349	359.17789	1225.6056	-1354.6134	199.53491	882.34479	-1076.764	199.942	890.6605	-1338.4177	370.6672	942.5959	-1161.765	372.1077	939.7394	-1236.3322	257.02606	560.59296	-996.73187	271.08923	421.59103	-999.65192	298.6788	221.15601	-965.22986	310.15564	62.997379	-971.90936	331.06091	47.417263	-1030.0471	161.46384	37.88847	-950.17487	262.49716	734.87347	-1404.9645	285.67874	422.52048	-1412.3973	299.91763	335.52789	-1434.9603	307.29379	72.935822	-1429.5945	325.10092	47.51368	-1365.4719	163.35747	40.772236	-1464.4324	
918	4.585	339.86743	1316.6246	-1211.1029	190.16728	1256.0797	-1207.6232	359.23618	1225.6316	-1354.5704	199.45801	882.39667	-1076.7782	200.036	890.5927	-1338.4323	370.695	942.5644	-1161.8993	372.1429	939.7307	-1236.2399	256.8284	560.62848	-996.65247	270.90491	421.61224	-999.60461	298.55621	221.18384	-965.17621	310.3031	62.99226	-971.9386	331.06345	47.357105	-1030.0505	161.49188	37.856216	-950.15735	262.59259	734.84088	-1404.9698	285.63757	422.45343	-1412.4323	299.88831	335.44785	-1434.9679	307.30881	72.858627	-1429.5728	325.12869	47.531887	-1365.4545	163.37181	40.700184	-1464.4062	
919	4.59	339.83624	1316.625	-1211.0576	190.0175	1255.6447	-1208.2393	359.21243	1225.6056	-1354.5214	199.40601	882.3764	-1076.8223	200.1136	890.6801	-1338.5341	370.6956	942.5608	-1161.7489	372.1804	939.7082	-1236.1934	256.69128	560.5954	-996.64465	270.66669	421.62912	-999.47864	298.45465	221.0878	-965.19928	310.34518	62.988297	-971.93353	331.02319	47.338383	-1030.0227	161.4901	37.851379	-950.17133	262.68408	734.8587	-1404.981	285.55951	422.46561	-1412.4832	299.83893	335.46539	-1435.0022	307.32492	72.872475	-1429.5663	325.13492	47.519939	-1365.5195	163.39011	40.711346	-1464.4154	
